<?xml version="1.0" encoding="utf-8"?>
<!-- Generator: Adobe Illustrator 25.4.1, SVG Export Plug-In . SVG Version: 6.00 Build 0)  -->
<svg version="1.0" id="Calque_1" xmlns="http://www.w3.org/2000/svg" xmlns:xlink="http://www.w3.org/1999/xlink" x="0px" y="0px"
	 viewBox="0 0 1366 768" enable-background="new 0 0 1366 768" xml:space="preserve">
<g>
	<g>
		<g>
			<polygon fill="#1D1D1B" points="1263,246.3 675.1,246.3 675.1,279 1109.7,279 1069.4,311.6 675.1,311.6 675.1,344.2 952.7,344.2 
				912.4,376.9 675.1,376.9 675.1,409.5 796,409.5 755.8,442.1 675.1,442.1 675.1,474.8 766.4,474.8 846.9,409.5 922.9,409.5 
				1003.5,344.2 1080,344.2 1160.5,279 1263,278.9 			"/>
		</g>
		<polygon fill="#1D1D1B" points="1263,507.4 827.8,507.4 868,474.7 1263,474.7 1263,442.1 984.4,442.1 1024.7,409.5 1263,409.5 
			1263,376.9 1141.4,376.9 1181.7,344.2 1263,344.2 1263,311.6 1171.1,311.6 1090.5,376.9 1014,376.9 933.5,442.1 857.5,442.1 
			776.9,507.4 675.1,507.4 675.1,540 1263,540 		"/>
	</g>
	<g>
		<g>
			<path fill="#010000" d="M286.3,455.3c-18.4,0-19.4-12.6-19.4-32.2c0-17.9,0.7-32.3,19.9-32.3c12.6,0,17.5,6.1,17.5,18v1.4h-9.5
				v-1.1c0-5.2-1.1-10.9-8.3-10.9c-9.4,0-9.9,9.6-9.9,24.4c0,17.8,0.7,25.6,9.5,25.6c7.9,0,9-6,9-12.2v-1.4h9.6v1.6
				C304.8,449,298.9,455.3,286.3,455.3z"/>
			<path fill="#010000" d="M321.9,433.5v3.4c0,7.3,1,12,6.6,12c5.4,0,6.4-4.5,6.4-8.9h8.5c-0.4,9.9-4.5,15-15,15
				c-14.3,0-15.6-9.8-15.6-21.6c0-11.7,1.3-23.7,16.1-23.7c11.8,0,14.2,7.4,14.6,16.6c0.1,2.3,0.1,4.8,0.1,7.2H321.9z M334.7,422.4
				c-0.4-3.6-1.8-6.5-5.9-6.5c-4.3,0-6,2.8-6.5,6.9c-0.3,1.8-0.3,3.4-0.3,5.4h13C334.8,426.1,334.9,424.3,334.7,422.4z"/>
			<path fill="#010000" d="M375.9,454.1v-28.5c0-4.7-0.1-9.7-5.8-9.7c-5.3,0-7.2,6.1-7.2,10.5v27.7H354v-35.2c0-2.8-0.1-5.4-0.3-8.2
				h9v5.2c2-3.4,5.8-6.3,10.9-6.3c8.7,0,11.3,5.8,11.3,13.4v30.9H375.9z"/>
			<path fill="#010000" d="M410,454.5c-8.8,0-11.1-2.9-11.1-11.3v-26.3h-6v-6.1h6v-7.7l8.9-3.8v11.4h7.2v6.1h-7.2V442
				c0,4.4,0.8,5.9,4.6,5.9c0.9,0,2-0.1,3-0.3v6.5C413.7,454.4,411.9,454.5,410,454.5z"/>
			<path fill="#010000" d="M442.1,418c-6.9,0-9.5,4.3-9.5,10.7v25.4h-8.9v-35.5c0-1.1-0.3-6.7-0.3-7.8h8.6l0.3,5.7
				c2.5-4.7,6.4-6.5,10.7-6.5c0.2,0,0.5,0,0.9,0.1v8.2C443.4,418.1,442.6,418,442.1,418z"/>
			<path fill="#010000" d="M457.9,433.5v3.4c0,7.3,1,12,6.6,12c5.4,0,6.4-4.5,6.4-8.9h8.5c-0.4,9.9-4.5,15-15,15
				c-14.3,0-15.6-9.8-15.6-21.6c0-11.7,1.3-23.7,16.1-23.7c11.8,0,14.2,7.4,14.6,16.6c0.1,2.3,0.1,4.8,0.1,7.2H457.9z M470.7,422.4
				c-0.4-3.6-1.8-6.5-5.9-6.5c-4.3,0-6,2.8-6.5,6.9c-0.3,1.8-0.3,3.4-0.3,5.4h13C470.8,426.1,470.9,424.3,470.7,422.4z"/>
			<path fill="#010000" d="M170.6,513.1h-5.2V540h-9.6v-62.2h16.6c12.6,0,18.6,4,18.6,17.2C190.9,511.2,182.7,513.1,170.6,513.1z
				 M170.2,485.1h-4.9v20.7h4.5c8,0,11.3-2.2,11.3-10.7C181.1,487.2,177.7,485.1,170.2,485.1z"/>
			<path fill="#010000" d="M212.8,541c-14.7,0-15.9-9.1-15.9-22.4c0-12.3,1.7-22.9,16.2-22.9c14.4,0,15.5,8.9,15.5,21.8
				C228.6,531.8,227,541,212.8,541z M219.6,515c0-6,0.1-13.2-6.6-13.2c-7.1,0-7,8.3-7,13.4v7.5c0,5.1-0.1,12.3,6.9,12.3
				c6.6,0,6.8-6.8,6.8-11.9V515z"/>
			<path fill="#010000" d="M280.4,540v-29.3c0-4.2-0.1-8.8-5.2-8.8c-5,0-6.4,5.4-6.4,9.7V540h-8.9v-29.4c0-5.1-0.3-8.7-5.1-8.7
				c-5.5,0-6.6,6.9-6.6,10.6V540h-8.9v-36.7c0-2.2-0.1-4.4-0.3-6.6h8.9v5.2c2.1-3.6,6-6.2,10.3-6.2c6.3,0,8.4,2.9,9.6,6.3
				c2.4-3.3,5.9-6.3,10.8-6.3c9.7,0,10.8,7.7,10.8,14.7V540H280.4z"/>
			<path fill="#010000" d="M320.2,540.8c-4.2,0-7.4-1.3-9.7-4.7v20.5h-8.9v-49.7c0-1.5-0.2-8.7-0.3-10.1h8.8l0.1,4.8
				c2.5-4,6.5-5.8,10.8-5.8c11.6,0,12.1,10.5,12.1,22.2C333,529.4,332.3,540.8,320.2,540.8z M317.5,501.8c-7,0-7.1,9.5-7.1,17.1
				c0,7.8,0.5,15.8,7.1,15.8c6.4,0,6.5-10.7,6.5-17.2C324,509.8,323.7,501.8,317.5,501.8z"/>
			<path fill="#010000" d="M343.4,487.1v-8.4h9.3v8.4H343.4z M343.6,540v-43.3h8.9V540H343.6z"/>
			<path fill="#010000" d="M386.3,540l-0.2-4.8c-2.5,3.9-5.6,5.6-10.1,5.6c-11.9,0-12.9-11.6-12.9-22.5c0-11.8,1.4-22.6,12.5-22.6
				c4.6,0,7.6,1.5,10.1,5.1v-22.9h8.9V532c0,1.2,0.3,6.8,0.3,8H386.3z M378.9,501.8c-6.3,0-6.7,8.2-6.7,16.8
				c0,7.8,0.7,16.3,6.6,16.3c6.6,0,7-8.4,7-16C385.7,510.2,385.3,501.8,378.9,501.8z"/>
			<path fill="#010000" d="M421.1,541c-14.7,0-15.9-9.1-15.9-22.4c0-12.3,1.7-22.9,16.2-22.9c14.4,0,15.5,8.9,15.5,21.8
				C436.9,531.8,435.2,541,421.1,541z M427.9,515c0-6,0.1-13.2-6.6-13.2c-7.1,0-7,8.3-7,13.4v7.5c0,5.1-0.1,12.3,6.9,12.3
				c6.6,0,6.8-6.8,6.8-11.9V515z"/>
			<path fill="#010000" d="M469.5,540l-0.1-5c-2.5,3.9-5.9,5.8-10.6,5.8c-8.2,0-11.4-4.6-11.4-12.7v-31.4h8.9v28.4
				c0,4.3,0.1,9.6,5.8,9.6c5.8,0,7-5.9,7-10.7v-27.3h8.9v35.2c0,3,0.2,5.3,0.3,8.2H469.5z"/>
		</g>
	</g>
	<g>
		<g>
			<path fill="#010000" d="M82,224.8v-19h21v19H82z M82.4,344.3v-97.8h20.2v97.8H82.4z"/>
			<path fill="#010000" d="M171.8,262.8c-15.5,0-21.5,9.7-21.5,24.1v57.4h-20.2v-80.1c0-2.5-0.6-15.1-0.8-17.7h19.4l0.6,12.8
				c5.6-10.7,14.5-14.7,24.2-14.7c0.4,0,1.2,0,1.9,0.2v18.4C174.7,263,173,262.8,171.8,262.8z"/>
			<path fill="#010000" d="M222.8,346.4c-31.6,0-35.7-19.2-35.7-47.9c0-28.5,2.7-54.3,36.3-54.3c24.6,0,32.4,10.3,32.6,33.9h-19.4
				c0-9.9-1.2-20.2-13.4-20.2c-16.5,0-15.7,20.4-15.7,37.1c0,22.1,0.6,37.8,15.1,37.8c12.8,0,14.2-11.1,14.4-21.3h19.4
				C256.2,328.2,252.1,346.4,222.8,346.4z"/>
			<path fill="#010000" d="M321.4,344.3l-0.4-11.8c-6,9.3-13.8,13.6-25.2,13.6c-17.7,0-24.6-12.8-24.6-28.9
				c0-31.4,23.3-33.8,48.7-33.8v-4.7c0-9.5,0.4-21.3-12.2-21.3c-8.5,0-13.4,5.6-13.4,14v1.2h-20v-1.4c0-20.8,16.5-27,34.3-27
				c23.9,0,31,10.5,31,33.2v34.9c0,10.7-0.2,21.3,1,32H321.4z M319.8,296.1h-4.1c-14,0-24.1,4.1-24.1,19.2c0,8.1,2.3,17.1,12,17.1
				c13.4,0,16.1-14.7,16.1-25V296.1z"/>
			<path fill="#010000" d="M459.7,344.3v-66.2c0-9.5-0.2-19.8-11.8-19.8c-11.2,0-14.5,12.2-14.5,21.9v64h-20.2v-66.3
				c0-11.4-0.6-19.6-11.4-19.6c-12.4,0-14.9,15.5-14.9,23.9v62.1h-20.2v-82.8c0-5-0.2-9.9-0.8-14.9H386v11.6
				c4.9-8.1,13.6-14,23.3-14c14.2,0,19,6.6,21.7,14.2c5.4-7.4,13.4-14.2,24.4-14.2c21.9,0,24.4,17.5,24.4,33.2v66.9H459.7z"/>
		</g>
	</g>
</g>
</svg>
